# xmcd
#
# Track frame offsets:
#	150
#	19298
#	35509
#	56856
#	72996
#	90055
#	104986
#	121860
#	140031
#	159121
#
# Disc length: 2364 seconds
#
# Revision: 1
# Processed by: cddbd v1.5.2PL0 Copyright (c) Steve Scherf et al.
# Submitted via: audiograbber 1.83.01
#
DISCID=87093a0a
DTITLE=The Down-Home Band - Country Hits [CD1]
DYEAR=2005
DGENRE=Country
TTITLE0=Gone
TTITLE1=Redneck Woman
TTITLE2=Live Like You Were Dying
TTITLE3=Life Goes On
TTITLE4=Strong Enough To Be Your Man
TTITLE5=That's What I Love About Sunday
TTITLE6=Beautiful Mess
TTITLE7=Blessed
TTITLE8=Anything But Mine
TTITLE9=Big Time
EXTD=
EXTT0=
EXTT1=
EXTT2=
EXTT3=
EXTT4=
EXTT5=
EXTT6=
EXTT7=
EXTT8=
EXTT9=
PLAYORDER=
